<?xml version="1.0" encoding="UTF-8"?>
<svg width="1237px" height="852px" viewBox="0 0 1237 852" version="1.1" xmlns="http://www.w3.org/2000/svg" xmlns:xlink="http://www.w3.org/1999/xlink">
    <g id="2021-9-logo" stroke="none" stroke-width="1" fill="none" fill-rule="evenodd">
        <g  transform="translate(-129.000000, -152.000000)">
            <g  transform="translate(129.000000, 152.000000)">
                <g  transform="translate(629.000000, 426.000000) scale(-1, 1) translate(-629.000000, -426.000000) translate(21.000000, 0.000000)" fill="#D8D8D8" fill-rule="nonzero">
                    <ellipse id="Oval" opacity="0.261997768" cx="885.5" cy="105" rx="3.5" ry="3"></ellipse>
                    <ellipse id="Oval-Copy" opacity="0.261997768" cx="885.5" cy="105" rx="3.5" ry="3"></ellipse>
                    <ellipse id="Oval-Copy-2" cx="1164.5" cy="123" rx="3.5" ry="3"></ellipse>
                    <ellipse id="Oval-Copy-18" opacity="0.375116257" cx="1212.5" cy="457" rx="3.5" ry="3"></ellipse>
                    <ellipse id="Oval-Copy-5" opacity="0.632207961" cx="1042" cy="684.5" rx="2" ry="1.5"></ellipse>
                    <ellipse id="Oval-Copy-4" cx="798.5" cy="200" rx="3.5" ry="3"></ellipse>
                    <circle id="Oval" opacity="0.392717634" cx="989.5" cy="539.5" r="1.5"></circle>
                    <ellipse id="Oval-Copy-6" opacity="0.699800037" cx="900" cy="592.5" rx="2" ry="1.5"></ellipse>
                    <circle id="Oval-Copy-3" opacity="0.699800037" cx="877.5" cy="587.5" r="1.5"></circle>
                    <ellipse id="Oval-Copy-12" opacity="0.405598958" cx="772" cy="688.5" rx="2" ry="1.5"></ellipse>
                    <circle id="Oval-Copy-11" cx="864.5" cy="696.5" r="1.5"></circle>
                    <ellipse id="Oval-Copy-17" cx="634" cy="838.5" rx="2" ry="1.5"></ellipse>
                    <circle id="Oval-Copy-16" cx="581.5" cy="693.5" r="1.5"></circle>
                    <ellipse id="Oval-Copy-15" cx="492" cy="746.5" rx="2" ry="1.5"></ellipse>
                    <circle id="Oval-Copy-14" opacity="0.468308222" cx="120.5" cy="799.5" r="1.5"></circle>
                    <circle id="Oval-Copy-13" cx="456.5" cy="850.5" r="1.5"></circle>
                    <ellipse id="Oval-Copy-10" cx="1015" cy="358.5" rx="2" ry="1.5"></ellipse>
                    <circle id="Oval-Copy-9" cx="970.5" cy="235.5" r="1.5"></circle>
                    <ellipse id="Oval-Copy-20" opacity="0.529296875" cx="101" cy="124.5" rx="2" ry="1.5"></ellipse>
                    <circle id="Oval-Copy-19" opacity="0.850702195" cx="56.5" cy="1.5" r="1.5"></circle>
                    <ellipse id="Oval-Copy-20" transform="translate(17.888088, 229.975277) rotate(13.000000) translate(-17.888088, -229.975277) " cx="17.8880881" cy="229.975277" rx="1.7916541" ry="1.59252646"></ellipse>
                    <ellipse id="Oval-Copy-19" transform="translate(1.919738, 100.030410) rotate(13.000000) translate(-1.919738, -100.030410) " cx="1.91973828" cy="100.03041" rx="1.59258142" ry="1.59252646"></ellipse>
                    <ellipse id="Oval-Copy-8" opacity="0.558570499" cx="940" cy="452.5" rx="2" ry="1.5"></ellipse>
                    <circle id="Oval-Copy-7" cx="881.5" cy="401.5" r="1.5"></circle>
                    <circle id="Oval" stroke="#979797" stroke-width="0.5" cx="1093" cy="617" r="2"></circle>
                    <circle id="Oval" stroke="#979797" stroke-width="0.5" cx="877.5" cy="822.5" r="1.5"></circle>
                </g>
            </g>
        </g>
    </g>
</svg>