<svg width="1237" height="852" xmlns="http://www.w3.org/2000/svg"><g fill="none" fill-rule="evenodd"><g transform="matrix(-1 0 0 1 1237 0)" fill="#D8D8D8" fill-rule="nonzero"><ellipse opacity=".262" cx="885.5" cy="105" rx="3.5" ry="3"/><ellipse opacity=".262" cx="885.5" cy="105" rx="3.5" ry="3"/><ellipse cx="1164.5" cy="123" rx="3.5" ry="3"/><ellipse opacity=".375" cx="1212.5" cy="457" rx="3.5" ry="3"/><ellipse opacity=".632" cx="1042" cy="684.5" rx="2" ry="1.5"/><ellipse cx="798.5" cy="200" rx="3.5" ry="3"/><circle opacity=".393" cx="989.5" cy="539.5" r="1.5"/><ellipse opacity=".7" cx="900" cy="592.5" rx="2" ry="1.5"/><circle opacity=".7" cx="877.5" cy="587.5" r="1.5"/><ellipse opacity=".406" cx="772" cy="688.5" rx="2" ry="1.5"/><circle cx="864.5" cy="696.5" r="1.5"/><ellipse cx="634" cy="838.5" rx="2" ry="1.5"/><circle cx="581.5" cy="693.5" r="1.5"/><ellipse cx="492" cy="746.5" rx="2" ry="1.5"/><circle opacity=".468" cx="120.5" cy="799.5" r="1.5"/><circle cx="456.5" cy="850.5" r="1.5"/><ellipse cx="1015" cy="358.5" rx="2" ry="1.5"/><circle cx="970.5" cy="235.5" r="1.5"/><ellipse opacity=".529" cx="101" cy="124.5" rx="2" ry="1.5"/><circle opacity=".851" cx="56.5" cy="1.5" r="1.5"/><ellipse transform="rotate(13 17.888 229.975)" cx="17.888" cy="229.975" rx="1.792" ry="1.593"/><circle transform="rotate(13 1.92 100.03)" cx="1.92" cy="100.03" r="1.593"/><ellipse opacity=".559" cx="940" cy="452.5" rx="2" ry="1.5"/><circle cx="881.5" cy="401.5" r="1.5"/><circle stroke="#979797" stroke-width=".5" cx="1093" cy="617" r="2"/><circle stroke="#979797" stroke-width=".5" cx="877.5" cy="822.5" r="1.5"/></g><text font-family="Circular-Book, Circular" font-size="16" fill="#FFF"><tspan x="0" y="173.8">Astronauts exploring the Metaverse in their bubble </tspan> <tspan x="0" y="194.8">boats, Alberts come from a highly evolved </tspan> <tspan x="0" y="215.8">civilization created by the crypto community. Alberts </tspan> <tspan x="0" y="236.8">are equipped with gadgets and gears that allow </tspan> <tspan x="0" y="257.8">them to traverse any terrain and overcome any </tspan> <tspan x="0" y="278.8">challenge. </tspan>  <tspan x="0" y="320.8">Once you purchase a bubble boats, you will find a </tspan> <tspan x="0" y="341.8">unique combination of an Albert and a toolbox of </tspan> <tspan x="0" y="362.8">five parts that generates either a Rover Albert, an </tspan> <tspan x="0" y="383.8">Avian Albert, or an Orca Albert. The toolbox includes </tspan> <tspan x="0" y="404.8">a space suit, a face shield, a flower badge, an arm </tspan> <tspan x="0" y="425.8">bag, and protective wear for the ears, hands, and </tspan> <tspan x="0" y="446.8">feet. All five parts in the toolbox can then be </tspan> <tspan x="0" y="467.8">unbundled and traded separately, in order to change </tspan> <tspan x="0" y="488.8">the Albert’s appearance and expand its abilities. </tspan> <tspan x="0" y="509.8">After trading the parts to create the ultimate Albert </tspan> <tspan x="0" y="530.8">for you, it can be minted into its final form.</tspan></text><text font-family="Copperplate-Bold, Copperplate" font-size="50" font-weight="bold" fill="#FFF"><tspan x="0" y="95.8">ALBERT MONKEY</tspan></text></g></svg>