<?xml version="1.0" encoding="UTF-8"?>
<svg width="1237px" height="852px" viewBox="0 0 1237 852" version="1.1" xmlns="http://www.w3.org/2000/svg" xmlns:xlink="http://www.w3.org/1999/xlink">
    <g id="2021-9-logo" stroke="none" stroke-width="1" fill="none" fill-rule="evenodd">
        <g  transform="translate(-129.000000, -152.000000)">
            <g  transform="translate(129.000000, 152.000000)">
                <g  transform="translate(629.000000, 426.000000) scale(-1, 1) translate(-629.000000, -426.000000) translate(21.000000, 0.000000)" fill="#D8D8D8" fill-rule="nonzero">
                    <ellipse id="Oval" opacity="0.261997768" cx="885.5" cy="105" rx="3.5" ry="3"></ellipse>
                    <ellipse id="Oval-Copy" opacity="0.261997768" cx="885.5" cy="105" rx="3.5" ry="3"></ellipse>
                    <ellipse id="Oval-Copy-2" cx="1164.5" cy="123" rx="3.5" ry="3"></ellipse>
                    <ellipse id="Oval-Copy-18" opacity="0.375116257" cx="1212.5" cy="457" rx="3.5" ry="3"></ellipse>
                    <ellipse id="Oval-Copy-5" opacity="0.632207961" cx="1042" cy="684.5" rx="2" ry="1.5"></ellipse>
                    <ellipse id="Oval-Copy-4" cx="798.5" cy="200" rx="3.5" ry="3"></ellipse>
                    <circle id="Oval" opacity="0.392717634" cx="989.5" cy="539.5" r="1.5"></circle>
                    <ellipse id="Oval-Copy-6" opacity="0.699800037" cx="900" cy="592.5" rx="2" ry="1.5"></ellipse>
                    <circle id="Oval-Copy-3" opacity="0.699800037" cx="877.5" cy="587.5" r="1.5"></circle>
                    <ellipse id="Oval-Copy-12" opacity="0.405598958" cx="772" cy="688.5" rx="2" ry="1.5"></ellipse>
                    <circle id="Oval-Copy-11" cx="864.5" cy="696.5" r="1.5"></circle>
                    <ellipse id="Oval-Copy-17" cx="634" cy="838.5" rx="2" ry="1.5"></ellipse>
                    <circle id="Oval-Copy-16" cx="581.5" cy="693.5" r="1.5"></circle>
                    <ellipse id="Oval-Copy-15" cx="492" cy="746.5" rx="2" ry="1.5"></ellipse>
                    <circle id="Oval-Copy-14" opacity="0.468308222" cx="120.5" cy="799.5" r="1.5"></circle>
                    <circle id="Oval-Copy-13" cx="456.5" cy="850.5" r="1.5"></circle>
                    <ellipse id="Oval-Copy-10" cx="1015" cy="358.5" rx="2" ry="1.5"></ellipse>
                    <circle id="Oval-Copy-9" cx="970.5" cy="235.5" r="1.5"></circle>
                    <ellipse id="Oval-Copy-20" opacity="0.529296875" cx="101" cy="124.5" rx="2" ry="1.5"></ellipse>
                    <circle id="Oval-Copy-19" opacity="0.850702195" cx="56.5" cy="1.5" r="1.5"></circle>
                    <ellipse id="Oval-Copy-20" transform="translate(17.888088, 229.975277) rotate(13.000000) translate(-17.888088, -229.975277) " cx="17.8880881" cy="229.975277" rx="1.7916541" ry="1.59252646"></ellipse>
                    <ellipse id="Oval-Copy-19" transform="translate(1.919738, 100.030410) rotate(13.000000) translate(-1.919738, -100.030410) " cx="1.91973828" cy="100.03041" rx="1.59258142" ry="1.59252646"></ellipse>
                    <ellipse id="Oval-Copy-8" opacity="0.558570499" cx="940" cy="452.5" rx="2" ry="1.5"></ellipse>
                    <circle id="Oval-Copy-7" cx="881.5" cy="401.5" r="1.5"></circle>
                    <circle id="Oval" stroke="#979797" stroke-width="0.5" cx="1093" cy="617" r="2"></circle>
                    <circle id="Oval" stroke="#979797" stroke-width="0.5" cx="877.5" cy="822.5" r="1.5"></circle>
                </g>
                <text id="Astronauts-exploring" font-family="Circular-Book, Circular" font-size="16" font-weight="normal" line-spacing="21" fill="#FFFFFF">
                    <tspan x="0" y="173.8">Astronauts exploring the Metaverse in their bubble </tspan>
                    <tspan x="0" y="194.8">boats, Alberts come from a highly evolved </tspan>
                    <tspan x="0" y="215.8">civilization created by the crypto community. Alberts </tspan>
                    <tspan x="0" y="236.8">are equipped with gadgets and gears that allow </tspan>
                    <tspan x="0" y="257.8">them to traverse any terrain and overcome any </tspan>
                    <tspan x="0" y="278.8">challenge. </tspan>
                    <tspan x="0" y="299.8"></tspan>
                    <tspan x="0" y="320.8">Once you purchase a bubble boats, you will find a </tspan>
                    <tspan x="0" y="341.8">unique combination of an Albert and a toolbox of </tspan>
                    <tspan x="0" y="362.8">five parts that generates either a Rover Albert, an </tspan>
                    <tspan x="0" y="383.8">Avian Albert, or an Orca Albert. The toolbox includes </tspan>
                    <tspan x="0" y="404.8">a space suit, a face shield, a flower badge, an arm </tspan>
                    <tspan x="0" y="425.8">bag, and protective wear for the ears, hands, and </tspan>
                    <tspan x="0" y="446.8">feet. All five parts in the toolbox can then be </tspan>
                    <tspan x="0" y="467.8">unbundled and traded separately, in order to change </tspan>
                    <tspan x="0" y="488.8">the Albert’s appearance and expand its abilities. </tspan>
                    <tspan x="0" y="509.8">After trading the parts to create the ultimate Albert </tspan>
                    <tspan x="0" y="530.8">for you, it can be minted into its final form.</tspan>
                </text>
                <text id="ALBERT-MONKEY" font-family="Copperplate-Bold, Copperplate" font-size="50" font-weight="bold" fill="#FFFFFF">
                    <tspan x="0" y="95.8">ALBERT MONKEY</tspan>
                </text>
            </g>
        </g>
    </g>
</svg>